# xmcd
#
# Track frame offsets:
#	183
#	10895
#	32928
#	46620
#	63200
#	85105
#	99955
#	118340
#	133908
#	151393
#	177113
#	193755
#	204905
#	220265
#	235253
#	251855
#
# Disc length: 3542 seconds
#
# Revision: 2
# Processed by: cddbd v1.5.2PL0 Copyright (c) Steve Scherf et al.
# Submitted via: audiograbber 1.83.01
#
DISCID=d90dd410
DTITLE=Reinhard Mey - Die grossen Erfolge
DYEAR=1984
DGENRE=Liedermacher
TTITLE0=Ich wollte wie Orpheus singen
TTITLE1=Ankomme Freitag, den 13.
TTITLE2=Diplomatenjagd
TTITLE3=Die Ballade vom Pfeifer
TTITLE4=Der Mörder ist immer der Gärtner
TTITLE5=Die heisse Schlacht am kalten Büffet
TTITLE6=Annabelle, ach Annabelle
TTITLE7=Ich bin Klempner von Beruf
TTITLE8=Über den Wolken
TTITLE9=Ein Antrag auf Erteilung eines Antragformulars
TTITLE10=Es gibt Tage, da wünscht'  ich, ich wär mein Hund
TTITLE11=Keine ruhige Minute
TTITLE12=Sommermorgen
TTITLE13=Das Leben ist...
TTITLE14=Was in der Zeitung steht
TTITLE15=Hilf mir
EXTD=
EXTT0=
EXTT1=
EXTT2=
EXTT3=
EXTT4=
EXTT5=
EXTT6=
EXTT7=
EXTT8=
EXTT9=
EXTT10=
EXTT11=
EXTT12=
EXTT13=
EXTT14=
EXTT15=
PLAYORDER=
